<svg xmlns="http://www.w3.org/2000/svg" viewBox="0 0 18 18" fill="currentColor">
	<path id="email" d="M16.24 5.52h.01l-6.68 5.36c-.17.13-.37.2-.58.2s-.41-.07-.58-.2L1.74 5.53h.01l-.04-.06v-1.23h1.31l5.98 4.79 5.98-4.79h1.3v1.23l-.04.05ZM.5 15.23h17V2.77H.5v12.46Z"/>

  <path id="facebook" d="M6.92 17.75V9.54H4.75V6.59h2.17V4.06c0-1.98 1.28-3.81 4.24-3.81 1.2 0 2.08.12 2.08.12l-.07 2.76s-.9 0-1.89 0c-1.06 0-1.24.49-1.24 1.31v2.16h3.21l-.14 2.95h-3.07v8.21H6.92Z"/>

  <path id="x" d="M10.62 7.67 16.95.31h-1.5l-5.5 6.39L5.56.31H.5l6.64 9.66L.5 17.69h1.5l5.8-6.75 4.64 6.75h5.06l-6.88-10.02ZM8.56 10.06l-.67-.96L2.54 1.44h2.3l4.32 6.18.67.96 5.61 8.03h-2.3l-4.58-6.55Z"/>

  <g id="url">
    <path d="M10.22 7.09c-.42.38-.45 1.04-.07 1.47l.07.07c.78.76.78 2.02.01 2.8l-3.07 3.07c-.37.37-.87.58-1.39.59h-.01c-.52 0-1.02-.2-1.4-.59l-.86-.84c-.78-.78-.78-2.04 0-2.82.42-.42.42-1.11 0-1.53-.19-.2-.44-.32-.72-.33h-.04c-.26 0-.51.1-.7.27l-.06.06c-.79.78-1.22 1.82-1.23 2.93 0 1.11.42 2.15 1.2 2.93l.03.03.85.86c.81.81 1.87 1.21 2.94 1.21s2.13-.4 2.94-1.21l3.06-3.06c1.62-1.62 1.62-4.26 0-5.88-.43-.43-1.12-.43-1.54 0Z"/>
    <path d="M16.05 2.82l-.89-.86c-1.62-1.62-4.25-1.62-5.87 0L6.23 5.02c-1.62 1.62-1.62 4.26 0 5.88.21.21.48.32.78.32s.57-.12.78-.32c.21-.21.32-.48.32-.78s-.12-.57-.32-.78c-.78-.76-.79-2.02-.02-2.8l3.08-3.08c.78-.77 2.03-.77 2.81 0l.86.86c.77.78.77 2.04 0 2.82-.18.23-.26.51-.22.8.04.29.18.54.41.72.39.3.94.31 1.34 0 1.62-1.61 1.63-4.24.02-5.86Z"/>
  </g>
	
</svg>