<svg xmlns="http://www.w3.org/2000/svg" viewBox="0 0 186 40">
	<g fill="#ffffff">
		<path d="M70.11768,19.55713c.38086-.21631.77734-.54004,1.18994-.97217s.76221-.98389,1.04785-1.65576.42822-1.45215.42822-2.34033c0-1.41553-.26953-2.65137-.80957-3.70801-.53955-1.05566-1.37012-1.87158-2.4917-2.44775s-2.56055-.86426-4.31689-.86426h-9.42725c-.2334,0-.42383.08447-.57129.25195-.14844.16846-.22217.38428-.22217.64844v23.3999c0,.26416.07373.48047.22217.64795.14746.16797.33789.25195.57129.25195h9.71289c1.67139,0,3.08936-.31152,4.25342-.93604,1.16357-.62354,2.04199-1.49951,2.63477-2.62793.59229-1.12793.88867-2.44824.88867-3.95996,0-1.36816-.3125-2.5498-.93604-3.5459-.62451-.99561-1.34912-1.70996-2.17432-2.14209ZM59.9917,11.78125h4.5708c.99463,0,1.74023.27002,2.23779.80957.49707.54004.74609,1.25439.74609,2.14209,0,.88818-.24902,1.61475-.74609,2.17822-.49756.56396-1.24316.8457-2.23779.8457h-4.5708v-5.97559ZM67.19727,27.56689c-.5293.66064-1.3125.99023-2.34912.99023h-4.85645v-6.66016h4.85645c1.01562,0,1.79346.31836,2.33301.9541.53955.63623.80957,1.42188.80957,2.35791,0,.9126-.26465,1.69824-.79346,2.35791Z"/>
		<path d="M94.3999,7.56885h-3.4917c-.21143,0-.39648.08447-.55518.25195-.15869.16846-.23828.38428-.23828.64844v14.65186c0,1.77637-.37061,3.09619-1.11084,3.95996-.74121.86377-1.76709,1.2959-3.0791,1.2959-1.33301,0-2.37012-.43213-3.11084-1.2959s-1.11084-2.18359-1.11084-3.95996v-14.65186c0-.26416-.07471-.47998-.22217-.64844-.14844-.16748-.33887-.25195-.57129-.25195h-3.45996c-.2334,0-.42383.08447-.57129.25195-.14844.16846-.22217.38428-.22217.64844v14.68799c0,2.28027.38086,4.15771,1.14258,5.63379s1.84082,2.56836,3.23779,3.27588c1.39648.70801,3.02588,1.06201,4.88818,1.06201,1.8833,0,3.5127-.354,4.88818-1.06201,1.37549-.70752,2.44434-1.7998,3.20605-3.27588s1.14258-3.35352,1.14258-5.63379v-14.68799c0-.26416-.07422-.47998-.22217-.64844-.14795-.16748-.32812-.25195-.53955-.25195Z"/>
		<path d="M113.42969,8.46924c-1.25928-.59961-2.74609-.90039-4.45996-.90039h-8.66553c-.2334,0-.42383.08447-.57129.25195-.14844.16846-.22217.38428-.22217.64844v23.3999c0,.26416.07373.48047.22217.64795.14746.16797.33789.25195.57129.25195h3.61865c.23242,0,.42285-.08398.57129-.25195.14795-.16748.22217-.38379.22217-.64795v-8.13623h4.25342c1.71387,0,3.20068-.28809,4.45996-.86377,1.25879-.57617,2.24268-1.45801,2.95166-2.646s1.06348-2.69385,1.06348-4.51807c0-1.7998-.35449-3.30566-1.06348-4.51807-.70898-1.21143-1.69287-2.11768-2.95166-2.71777ZM111.33447,18.36914c-.60303.6001-1.44434.8999-2.52344.8999h-4.18994v-7.2002h4.18994c1.20605,0,2.0791.33643,2.61865,1.0083s.80957,1.53613.80957,2.5918c0,1.20068-.30176,2.10059-.90479,2.7002Z"/>
		<path d="M137.56885,11.65527c-.80469-1.47607-1.91016-2.58594-3.31689-3.33008-1.40771-.74365-3.04248-1.11621-4.9043-1.11621-1.88379,0-3.52881.37256-4.93604,1.11621-1.40771.74414-2.50781,1.854-3.30127,3.33008-.79346,1.47559-1.22217,3.29395-1.28564,5.45361-.021,1.05664-.03174,2.09424-.03174,3.11426,0,1.02051.01074,2.04639.03174,3.07812.06348,2.20801.48682,4.03809,1.27002,5.48975.78271,1.45264,1.87256,2.53809,3.26953,3.25781,1.39648.72021,3.05762,1.08008,4.9834,1.08008,1.9043,0,3.55518-.35986,4.95166-1.08008,1.39697-.71973,2.48633-1.80518,3.26953-3.25781.78271-1.45166,1.20605-3.28174,1.26953-5.48975.04248-1.03174.06348-2.05762.06348-3.07812,0-1.02002-.021-2.05762-.06348-3.11426-.04248-2.15967-.46533-3.97803-1.26953-5.45361ZM133.63281,23.12109c-.04248,1.87207-.46045,3.23438-1.25391,4.08594-.79346.85205-1.8042,1.27783-3.03125,1.27783-1.24902,0-2.26465-.42578-3.04736-1.27783-.7832-.85156-1.20605-2.21387-1.26953-4.08594-.02148-1.05566-.03174-2.0459-.03174-2.97021,0-.92334.01025-1.90186.03174-2.93359.04199-1.24805.24854-2.26807.61865-3.06006s.87305-1.37402,1.50781-1.74609,1.36523-.55811,2.19043-.55811,1.5498.18604,2.17432.55811c.62402.37207,1.12695.9541,1.50781,1.74609s.58154,1.81201.60303,3.06006c.04199,1.03174.06348,2.01025.06348,2.93359,0,.92432-.02148,1.91455-.06348,2.97021Z"/>
		<path d="M156.32812,22.61719c1.24854-.57617,2.24268-1.45215,2.98389-2.62793.74023-1.17578,1.11084-2.64014,1.11084-4.39209,0-2.59229-.76172-4.57764-2.28516-5.95801-1.52393-1.37988-3.6084-2.07031-6.25342-2.07031h-8.41162c-.2334,0-.42383.08447-.57129.25195-.14844.16846-.22217.38428-.22217.64844v23.3999c0,.26416.07373.48047.22217.64795.14746.16797.33789.25195.57129.25195h3.45996c.23242,0,.42285-.08398.57129-.25195.14795-.16748.22217-.38379.22217-.64795v-8.31592h3.84082l3.87256,8.24365c.08447.19238.22217.40234.4126.63037s.47607.3418.85693.3418h3.52344c.19043,0,.34912-.07764.47607-.23389.12695-.15576.19043-.32959.19043-.52197,0-.12012-.03174-.25195-.09521-.396l-4.47559-9ZM154.37598,18.08105c-.56104.6001-1.42334.8999-2.58691.8999h-4.06299v-6.91211h4.06299c1.18506,0,2.05225.3125,2.60303.93604.5498.62451.8252,1.47607.8252,2.55615s-.28076,1.92041-.84131,2.52002Z"/>
		<path d="M183.91211,31.68896l-7.55469-23.14795c-.06348-.26367-.19043-.4917-.38086-.68408-.19043-.19189-.45557-.28809-.79395-.28809h-4.06299c-.33838,0-.60303.09619-.79346.28809-.19043.19238-.31738.42041-.38086.68408l-7.55469,23.14795c-.02148.09619-.03174.2041-.03174.32422,0,.19238.06348.36621.19043.52197.12695.15625.28564.23389.47607.23389h3.30127c.31738,0,.55029-.08398.69824-.25195.14795-.16748.24316-.32422.28564-.46826l1.36523-4.03174h8.95117l1.36475,4.03174c.04248.14404.1377.30078.28564.46826.14795.16797.38135.25195.69873.25195h3.30078c.19092,0,.34961-.07764.47656-.23389.12695-.15576.19043-.32959.19043-.52197,0-.12012-.01123-.22803-.03174-.32422ZM169.8501,23.37305l3.30127-10.36816,3.26953,10.36816h-6.5708Z"/>
	</g>
	<g fill="#ffffff">
		<path d="M27.74571,25.71793c-.38068,0-.67676.87459-1.7342,1.41063-2.45326,1.02976-3.34151-.76174-3.32741-1.7774,2.39687-.31034,3.97598-1.89025,3.6094-3.93566-.36658-2.04542-4.22977-1.98899-4.22977-1.98899h-.0141s-3.86319-.05643-4.22977,1.98899c-.36658,2.04542,1.21253,3.62533,3.6094,3.93566.0141,1.01565-.87415,2.80716-3.32742,1.7774-1.05744-.53604-1.35353-1.41063-1.7342-1.41063s-.50757.77585.16919,1.52349c.67676.74763,1.36762,1.14261,2.12898,1.3401.70496.663,1.36762,1.29778,3.38381,1.38242h.0141c2.01619-.08464,2.67885-.71942,3.38381-1.38242.76136-.19749,1.45222-.59247,2.12898-1.3401.67676-.74764.54987-1.52349.16919-1.52349Z"/>
		<circle cx="16.7777" cy="17.22946" r="1.86509"/>
		<circle cx="27.33566" cy="17.22946" r="1.86509"/>
		<path d="M22.05668,0C11.01098,0,2.05668,8.95431,2.05668,20s8.95431,20,20,20,20-8.9543,20-20S33.10238,0,22.05668,0ZM35.13004,23.88125c-1.14673.11285-1.97493-1.90619-2.14412-2.90304s-.50757-4.53283-1.48512-5.90584c.20679,2.99054-.16919,5.04066.0752,7.05316.09095.74894.58277,2.2382.92115,2.78365-.35718,1.52348-1.07154,4.21309-4.68094,6.15036-2.81844,1.46352-5.61354,1.45007-5.75953,1.44834-.14599.00173-2.94109.01518-5.75953-1.44834-3.6094-1.93727-4.32376-4.62687-4.68094-6.15036.33838-.54544.83021-2.03471.92115-2.78365.24438-2.0125-.1316-4.06262.0752-7.05316-.97755,1.37301-1.31593,4.909-1.48512,5.90584-.16919.99685-.99739,3.01589-2.14413,2.90304-1.14673-.11285-2.14204-1.49241-2.68721-2.48925s-1.54151-3.21624-.62037-5.04066c.92115-1.82441,3.45901-4.40117,5.15091-5.51087,1.69191-1.1097,3.25222-.54544,3.25222-.54544,0,0,.65796-.9028,2.91384-1.88084,2.19487-.95159,4.91823-.92392,5.06397-.92172.14574-.0022,2.8691-.02986,5.06396.92172,2.25587.97804,2.91384,1.88084,2.91384,1.88084,0,0,1.56031-.56425,3.25222.54544,1.69191,1.1097,4.22977,3.68646,5.15091,5.51087.92115,1.82442-.0752,4.04381-.62036,5.04066-.54517.99685-1.54047,2.3764-2.68721,2.48925Z"/>
	</g>
</svg>