<svg xmlns="http://www.w3.org/2000/svg" viewBox="0 0 16 16" fill="currentColor"><path fill="#f08a1f" d="M10.276 10.287c-.152 0-.271.35-.694.564-.981.412-1.337-.305-1.331-.711.959-.124 1.59-.756 1.444-1.574-.147-.818-1.692-.796-1.692-.796h-.006s-1.545-.023-1.692.796c-.147.818.485 1.45 1.444 1.574.006.406-.35 1.123-1.331.711-.423-.214-.541-.564-.694-.564s-.203.31.068.609c.271.299.547.457.852.536.282.265.547.519 1.354.553h.006c.806-.034 1.072-.288 1.354-.553.305-.079.581-.237.852-.536.271-.299.22-.609.068-.609Z"/><circle fill="#f08a1f" cx="5.888" cy="6.892" r=".746"/><circle cx="10.112" cy="6.892" r=".746"/><path fill="#f08a1f" d="M8 0C3.582 0 0 3.582 0 8s3.582 8 8 8 8-3.582 8-8S12.418 0 8 0ZM13.229 9.552c-.459.045-.79-.762-.858-1.161s-.203-1.813-.594-2.362c.083 1.196-.068 2.016.03 2.821.036.3.233.895.368 1.113-.143.609-.429 1.685-1.872 2.46-1.127.585-2.245.58-2.304.579-.058 0-1.176.006-2.304-.579-1.444-.775-1.73-1.851-1.872-2.46.135-.218.332-.814.368-1.113.098-.805-.053-1.625.03-2.821-.391.549-.526 1.964-.594 2.362-.068.399-.399 1.206-.858 1.161-.459-.045-.857-.597-1.075-.996s-.617-1.286-.248-2.016c.368-.73 1.384-1.76 2.06-2.204.677-.444 1.301-.218 1.301-.218 0 0 .263-.361 1.166-.752.878-.381 1.967-.37 2.026-.369.058 0 1.148-.012 2.026.369.902.391 1.166.752 1.166.752 0 0 .624-.226 1.301.218.677.444 1.692 1.475 2.06 2.204.368.73-.03 1.618-.248 2.016-.218.399-.616.951-1.075.996Z"/></svg>