<svg xmlns="http://www.w3.org/2000/svg" viewBox="0 0 16 16" fill="currentColor">
<circle fill="#f97316" cx="8" cy="8" r="8"/>
<path fill="#fff" d="M7.673 3.411c.346-.028 1.412.028 1.758.14s.477.146.552.178.153.059.181.05.003-.259.078-.349.162-.192 1.038-.026 1.851.493 2.347.718.816.405.882.801.056.869-.041 1.455-.408 1.166-.555 1.374-.396.396-.651.321-.568-.172-1.362-1.3c-.754-1.071-1.156-1.957-1.156-1.957 0 0 .181.745.24 1.247-.243-.059-1.143-.361-2.633-.361-1.003 0-1.627.208-1.907.283s-.524.125-1.035.006-.966-.305-2.138-.224-1.166.256-1.178.349.037.24.09.34c.019.265.175 1.181.365 1.421-.175.215-.371.271-.564.103s-.485-.545-.528-1.645c-.033-.844.207-1.156.821-1.583s1.493-.838 1.994-.966.764.028.764.028c0 0-.885.689-.938 1.225.38-.34 1.019-.966 1.991-1.3s1.586-.327 1.586-.327Z"/>
<path fill="#fff" d="M12.348 9.198c-.173-.893-.711-1.86-.949-2.225-.187-.075-.851-.168-.851-.168 0 0-.014.159-.089.524-.164.697-.5.996-.855 1.164-1.155.304-1.776.145-2.323-.122s-.855-1.075-.972-1.323c-.117-.248-.275-.279-.402-.276-.066.001-.168.042-.224.108-.056.065-.126.313-.252.636-.126.323-.458.827-1.089.958s-1.234-.112-1.234-.112c0 0-.037.215-.047.538-.009.323-.033 1.15.542 2.188.575 1.038 1.599 1.337 1.753 1.402.154.065.5.061.64.154.14.093.313.453.449.958s.154.561.238.612.51.234 1.949-.29c1.44-.524 2.295-1.3 2.978-2.127.827-1.094.79-2.136.739-2.599ZM5.509 10.605c-.697.136-1.197-.323-1.37-.682-.173-.36-.201-.785.22-.921s.865-.122 1.117-.093c.308.034 1.108.187 1.136.598s-.407.963-1.103 1.099Z"/>

<circle fill="#2f6fed" cx="8" cy="8" r="8"/>
<path fill="#fff" d="M7.673 3.411c.346-.028 1.412.028 1.758.14s.477.146.552.178.153.059.181.05.003-.259.078-.349.162-.192 1.038-.026 1.851.493 2.347.718.816.405.882.801.056.869-.041 1.455-.408 1.166-.555 1.374-.396.396-.651.321-.568-.172-1.362-1.3c-.754-1.071-1.156-1.957-1.156-1.957 0 0 .181.745.24 1.247-.243-.059-1.143-.361-2.633-.361-1.003 0-1.627.208-1.907.283s-.524.125-1.035.006-.966-.305-2.138-.224-1.166.256-1.178.349.037.24.09.34c.019.265.175 1.181.365 1.421-.175.215-.371.271-.564.103s-.485-.545-.528-1.645c-.033-.844.207-1.156.821-1.583s1.493-.838 1.994-.966.764.028.764.028c0 0-.885.689-.938 1.225.38-.34 1.019-.966 1.991-1.3s1.586-.327 1.586-.327Z"/>
<path fill="#fff" d="M12.348 9.198c-.173-.893-.711-1.86-.949-2.225-.187-.075-.851-.168-.851-.168 0 0-.014.159-.089.524-.164.697-.5.996-.855 1.164-1.155.304-1.776.145-2.323-.122s-.855-1.075-.972-1.323c-.117-.248-.275-.279-.402-.276-.066.001-.168.042-.224.108-.056.065-.126.313-.252.636-.126.323-.458.827-1.089.958s-1.234-.112-1.234-.112c0 0-.037.215-.047.538-.009.323-.033 1.15.542 2.188.575 1.038 1.599 1.337 1.753 1.402.154.065.5.061.64.154.14.093.313.453.449.958s.154.561.238.612.51.234 1.949-.29c1.44-.524 2.295-1.3 2.978-2.127.827-1.094.79-2.136.739-2.599ZM5.509 10.605c-.697.136-1.197-.323-1.37-.682-.173-.36-.201-.785.22-.921s.865-.122 1.117-.093c.308.034 1.108.187 1.136.598s-.407.963-1.103 1.099Z"/>
</svg>