<svg viewBox="0 0 24 24" fill="currentColor"><path d="M12.002 7.332c-2.58-.008-4.676 2.08-4.684 4.66s2.08 4.676 4.66 4.684 4.676-2.08 4.684-4.66-2.08-4.676-4.66-4.684ZM11.978 8.973c1.674-.008 3.035 1.345 3.043 3.018.008 1.674-1.345 3.035-3.018 3.043-1.674.008-3.035-1.345-3.043-3.018-.008-1.674 1.345-3.035 3.018-3.043ZM15.772 7.141c0-.601.488-1.089 1.089-1.089s1.089.488 1.089 1.089-.487 1.089-1.089 1.089-1.089-.487-1.089-1.089ZM21.041 8.246c-.069-1.458-.402-2.75-1.471-3.815-1.064-1.064-2.356-1.398-3.815-1.471-1.503-.085-6.008-.085-7.512 0-1.454.069-2.746.402-3.815 1.467-1.068 1.064-1.397 2.356-1.471 3.815-.085 1.503-.085 6.008 0 7.512.069 1.458.402 2.75 1.471 3.815 1.068 1.064 2.356 1.397 3.815 1.471 1.503.085 6.008.085 7.512 0 1.458-.069 2.75-.402 3.815-1.471 1.064-1.064 1.397-2.356 1.471-3.815.085-1.503.085-6.004 0-7.507ZM19.099 17.367c-.317.796-.93 1.41-1.731 1.731-1.198.475-4.042.366-5.367.366s-4.172.106-5.367-.366c-.796-.317-1.41-.93-1.731-1.731-.475-1.198-.366-4.042-.366-5.367s-.106-4.172.366-5.367c.317-.796.93-1.41 1.731-1.731 1.198-.475 4.042-.366 5.367-.366s4.172-.106 5.367.366c.796.317 1.41.93 1.731 1.731.475 1.198.366 4.042.366 5.367s.11 4.172-.366 5.367Z"/></svg>