<svg viewBox="0 0 24 24" fill="currentColor"><path d="M17.342 5.5c-.674 0-1.328.183-1.901.516-.642-.65-1.389-1.194-2.214-1.605 1.146-.975 2.604-1.511 4.115-1.511 3.51 0 6.358 2.844 6.358 6.358 0 1.686-.67 3.303-1.861 4.493l-2.888 2.888c-1.19 1.19-2.807 1.861-4.493 1.861-3.51 0-6.358-2.844-6.358-6.358 0-.061 0-.122.004-.183.02-.719.617-1.284 1.337-1.263.719.02 1.284.618 1.263 1.337v.106c0 2.076 1.682 3.758 3.758 3.758.995 0 1.95-.394 2.657-1.101l2.888-2.888c.703-.703 1.101-1.662 1.101-2.657 0-2.076-1.682-3.758-3.758-3.758l-.008.008ZM11.48 8.64c-.077-.033-.154-.077-.223-.126-.512-.264-1.097-.414-1.71-.414-.995 0-1.95.394-2.657 1.101l-2.888 2.888c-.703.703-1.101 1.662-1.101 2.657 0 2.076 1.682 3.758 3.758 3.758.67 0 1.324-.179 1.897-.512.642.65 1.389 1.194 2.218 1.605-1.146.971-2.6 1.511-4.115 1.511-3.51 0-6.358-2.844-6.358-6.358 0-1.686.67-3.303 1.861-4.493l2.888-2.888c1.19-1.19 2.807-1.861 4.493-1.861 3.518 0 6.358 2.868 6.358 6.374v.158c-.016.719-.613 1.284-1.332 1.268-.719-.016-1.284-.613-1.268-1.333v-.093c0-1.369-.731-2.572-1.82-3.234v-.008Z"/></svg>