<svg viewBox="0 0 24 24" fill="currentColor"><path d="M11.127 5.374c.581 1.743-.012 3.502-1.324 3.933-1.312.431-2.848-.634-3.429-2.377-.581-1.743.012-3.502 1.324-3.932 1.312-.431 2.848.634 3.429 2.377ZM5.679 9.668c.768 1.316.581 2.848-.414 3.417s-2.425-.037-3.189-1.353c-.764-1.316-.581-2.848.414-3.417s2.425.037 3.189 1.353ZM4.411 17.899c2.129-5.74 5.911-7.199 7.589-7.199s5.46 1.458 7.589 7.199c.146.394.211.817.211 1.239v.065c0 1.048-.849 1.897-1.897 1.897-.467 0-.93-.057-1.381-.171l-3.575-.894c-.622-.154-1.272-.154-1.893 0l-3.575.894c-.451.114-.914.171-1.381.171-1.048 0-1.897-.849-1.897-1.897v-.065c0-.423.065-.845.211-1.239ZM18.736 13.085c-.995-.569-1.182-2.1-.414-3.417.768-1.316 2.194-1.922 3.189-1.353s1.182 2.1.414 3.417c-.768 1.316-2.194 1.922-3.189 1.353ZM14.198 9.307c-1.312-.431-1.905-2.19-1.324-3.933.581-1.743 2.117-2.807 3.429-2.377 1.312.431 1.905 2.19 1.324 3.932-.581 1.743-2.117 2.807-3.429 2.377Z"/></svg>