<svg viewBox="0 0 24 24" fill="currentColor"><path d="M12.488 1.862c-4.168 0-8.288 2.779-8.288 7.276 0 2.86 1.609 4.485 2.584 4.485.402 0 .634-1.121.634-1.438 0-.378-.963-1.182-.963-2.754 0-3.266 2.486-5.582 5.704-5.582 2.767 0 4.814 1.572 4.814 4.461 0 2.157-.865 6.203-3.668 6.203-1.012 0-1.877-.731-1.877-1.779 0-1.536 1.072-3.022 1.072-4.607 0-2.689-3.815-2.202-3.815 1.048 0 .682.085 1.438.39 2.06-.561 2.413-1.706 6.008-1.706 8.495 0 .768.11 1.523.183 2.291.138.154.069.138.28.061 2.047-2.803 1.974-3.352 2.901-7.02.5.951 1.792 1.462 2.815 1.462 4.314 0 6.252-4.205 6.252-7.995 0-4.034-3.486-6.667-7.312-6.667Z"/></svg>