<svg viewBox="0 0 24 24" fill="currentColor"><path d="M12 18.722c.508 0 .917.409.917.917v2.444c0 .508-.409.917-.917.917s-.917-.409-.917-.917v-2.444c0-.508.409-.917.917-.917ZM5.95 16.751c.359-.359.94-.359 1.299 0s.359.94 0 1.299l-1.73 1.73c-.359.359-.94.359-1.295 0s-.359-.94 0-1.295l1.726-1.73v-.004ZM16.751 16.751c.359-.359.94-.359 1.299 0l1.73 1.73c.359.359.359.94 0 1.295s-.94.359-1.295 0l-1.73-1.73c-.359-.359-.359-.94 0-1.299l-.004.004ZM12 16.889c-2.7 0-4.889-2.189-4.889-4.889s2.189-4.889 4.889-4.889 4.889 2.189 4.889 4.889-2.189 4.889-4.889 4.889ZM4.361 11.083c.508 0 .917.409.917.917s-.409.917-.917.917H1.917c-.508 0-.917-.409-.917-.917s.409-.917.917-.917h2.444ZM22.083 11.083c.508 0 .917.409.917.917s-.409.917-.917.917h-2.444c-.508 0-.917-.409-.917-.917s.409-.917.917-.917h2.444ZM4.22 4.22c.359-.359.94-.359 1.295 0l1.73 1.726c.359.359.359.94 0 1.299-.359.359-.94.359-1.299 0l-1.726-1.726c-.359-.359-.359-.94 0-1.295v-.004ZM18.482 4.22c.359-.359.94-.359 1.295 0s.359.94 0 1.295l-1.73 1.73c-.359.359-.94.359-1.299 0s-.359-.94 0-1.299l1.73-1.726h.004ZM12 1c.508 0 .917.409.917.917v2.444c0 .508-.409.917-.917.917s-.917-.409-.917-.917V1.917c0-.508.409-.917.917-.917Z"/></svg>