<svg viewBox="0 0 24 24" fill="currentColor"><path d="M21.098 10.129c-1.788.004-3.534-.553-4.989-1.592v7.26c0 1.345-.41 2.657-1.178 3.762-.768 1.105-1.853 1.95-3.112 2.421-1.259.471-2.633.548-3.937.215-1.304-.333-2.474-1.052-3.36-2.064-.886-1.012-1.434-2.275-1.584-3.612-.15-1.337.118-2.685.756-3.868.638-1.182 1.625-2.141 2.827-2.75 1.203-.609 2.555-.833 3.888-.65v3.652c-.609-.191-1.263-.187-1.869.016-.605.203-1.133.593-1.503 1.109-.37.516-.569 1.142-.565 1.783.004.642.211 1.259.589 1.775s.91.898 1.519 1.093c.609.195 1.263.195 1.869-.004.605-.199 1.138-.585 1.511-1.101.374-.516.577-1.142.577-1.779V1.602h3.575c-.004.301.024.605.077.902.126.662.382 1.296.76 1.857.378.561.865 1.04 1.43 1.406.808.532 1.755.817 2.722.817v3.551l-.004-.004Z"/></svg>