<svg viewBox="0 0 24 24" fill="currentColor"><path d="M13.397 2.404c.203-.487.678-.804 1.203-.804h6.5c.719 0 1.3.581 1.3 1.3v6.5c0 .524-.317.999-.804 1.203s-1.044.089-1.418-.28l-2.328-2.332-6.232 6.228c-.508.508-1.333.508-1.84 0-.508-.508-.508-1.333 0-1.84l6.232-6.228-2.328-2.332c-.374-.374-.483-.93-.28-1.418l-.004.004ZM1.6 8.75c0-1.796 1.454-3.25 3.25-3.25h3.25c.719 0 1.3.581 1.3 1.3s-.581 1.3-1.3 1.3h-3.25c-.358 0-.65.292-.65.65v10.4c0 .357.292.65.65.65h10.4c.357 0 .65-.293.65-.65v-3.25c0-.719.581-1.3 1.3-1.3s1.3.581 1.3 1.3v3.25c0 1.796-1.454 3.25-3.25 3.25H4.85c-1.796 0-3.25-1.454-3.25-3.25v-10.4Z"/></svg>