<svg xmlns="http://www.w3.org/2000/svg" viewBox="0 0 16 16" fill="currentColor">
<path fill="#3a342f" d="M8 .029C3.582.029 0 3.611 0 8.029c0 1.659.522 3.297 1.487 4.647.237.332.485.676.786.959.058.055.119.108.183.157.009.007.014.008.023 0 .008-.007.013-.016.018-.025.019-.031.031-.065.044-.098.014-.035.028-.071.042-.106.028-.071.057-.141.085-.212s.057-.141.085-.212.056-.141.084-.212c.023-.059.046-.118.069-.178.228-.596.419-1.204.59-1.818.021-.074.021-.072.093-.06.113.019.225.043.339.05.386.024.728-.089 1.01-.359.208-.198.335-.445.42-.716.135-.431.159-.873.117-1.32-.03-.318-.075-.635-.104-.954-.029-.321-.058-.643-.068-.965-.011-.335.008-.67.068-1.002.006-.034.007-.068-.032-.084-.044-.017-.085.004-.108.042-.108.183-.154.403-.184.611-.033.226-.041.455-.047.684-.014.532.038 1.061.066 1.591.015.293.004.584-.04.874-.037.245-.109.48-.237.695-.215.362-.588.539-1.001.476-.221-.033-.428-.109-.628-.204-.403-.191-.762-.448-1.087-.752-.276-.258-.525-.539-.711-.871-.235-.419-.249-.839-.01-1.262.086-.152.195-.286.324-.402.271-.246.548-.485.82-.73.388-.349.756-.718 1.077-1.13.208-.266.402-.543.6-.817.191-.263.422-.48.713-.63.22-.113.449-.203.685-.276.81-.249 1.632-.291 2.465-.142.596.106 1.17.284 1.718.541.34.159.66.35.929.617.16.158.3.332.395.538.058.126.087.26.109.396.065.398.282.681.653.837.229.096.464.18.699.262.278.097.559.187.838.28.009.003.031.009.036.019.004.009-.02.026-.028.029-.252.108-.386.382-.329.687.055.292.227.511.462.685.111.082.229.152.368.176.075.013.078.015.048.085-.087.203-.17.408-.265.608-.196.412-.427.803-.743 1.138-.302.322-.664.538-1.096.638-.366.085-.735.102-1.106.064-.371-.039-.742-.084-1.109-.148-.413-.072-.822-.165-1.231-.256-.113-.025-.224-.069-.327-.121-.233-.117-.392-.302-.474-.551-.018-.056-.044-.076-.091-.075-.046.002-.077.026-.088.08-.007.034-.009.071-.004.105.025.175.097.33.208.467.171.212.402.331.653.416.302.102.616.154.929.206.098.016.102.016.045.102-.16.242-.272.505-.361.779-.107.33-.171.668-.206 1.013-.04.396-.037.792.01 1.187.042.358.097.715.139 1.073.025.214.031.429.024.644-.005.156-.036.169.116.169.366 0 .773-.121 1.125-.215.345-.093.684-.209 1.014-.347.65-.273 1.262-.632 1.818-1.065 1.109-.865 1.984-2.02 2.51-3.325.382-.948.577-1.967.577-2.989 0-4.418-3.582-8-8-8Z"/>
<path fill="#3a342f" d="M9.167 6.695c.027 0 .055.002.081 0 .295-.031.446-.343.286-.589-.13-.199-.42-.246-.611-.099-.159.122-.216.315-.131.477.078.148.21.214.375.212Z"/>
</svg>