<svg data-icon="instagram" class="h-7 md:h-8 w-auto" viewBox="0 0 20 20" fill="currentColor" aria-hidden="true" xmlns="http://www.w3.org/2000/svg">
  <path d="M14.87,6.31c-.11-.29-.25-.5-.47-.72-.22-.22-.43-.35-.72-.47-.22-.09-.55-.19-1.16-.22-.66-.03-.86-.04-2.53-.04s-1.87,0-2.53.04c-.61.03-.94.13-1.16.22-.29.11-.5.25-.72.47s-.35.43-.47.72c-.09.22-.19.55-.22,1.16-.03.66-.04.86-.04,2.53s0,1.87.04,2.53c.03.61.13.94.22,1.16.11.29.25.5.47.72s.43.35.72.47c.22.09.55.19,1.16.22.66.03.86.04,2.53.04s1.87,0,2.53-.04c.61-.03.94-.13,1.16-.22.29-.11.5-.25.72-.47.22-.22.35-.43.47-.72.09-.22.19-.55.22-1.16.03-.66.04-.86.04-2.53s0-1.87-.04-2.53c-.03-.61-.13-.94-.22-1.16ZM10,13.21c-1.77,0-3.21-1.44-3.21-3.21s1.44-3.21,3.21-3.21,3.21,1.44,3.21,3.21-1.44,3.21-3.21,3.21ZM13.34,7.41c-.41,0-.75-.34-.75-.75s.34-.75.75-.75.75.34.75.75-.34.75-.75.75Z"/>
  <path d="M10,7.92c-1.15,0-2.08.93-2.08,2.08s.93,2.08,2.08,2.08,2.08-.93,2.08-2.08-.93-2.08-2.08-2.08Z"/>
  <path d="M10,0C4.48,0,0,4.48,0,10s4.48,10,10,10,10-4.48,10-10S15.52,0,10,0ZM16.21,12.58c-.03.67-.14,1.12-.29,1.52-.16.41-.37.76-.72,1.11-.35.35-.7.56-1.11.72-.4.15-.85.26-1.52.29-.67.03-.88.04-2.58.04s-1.91,0-2.58-.04c-.67-.03-1.12-.14-1.52-.29-.41-.16-.76-.37-1.11-.72-.35-.35-.56-.7-.72-1.11-.15-.4-.26-.85-.29-1.52-.03-.67-.04-.88-.04-2.58s0-1.91.04-2.58c.03-.67.14-1.12.29-1.52.16-.41.37-.76.72-1.11.35-.35.7-.56,1.11-.72.4-.15.85-.26,1.52-.29.67-.03.88-.04,2.58-.04s1.91,0,2.58.04c.67.03,1.12.14,1.52.29.41.16.76.37,1.11.72s.56.7.72,1.11c.15.4.26.85.29,1.52.03.67.04.88.04,2.58s0,1.91-.04,2.58Z"/>
</svg>