<svg data-icon="pinterest" class="h-7 md:h-8 w-auto" viewBox="0 0 20 20" fill="currentColor" aria-hidden="true" xmlns="http://www.w3.org/2000/svg">
  <path d="M10,0C4.48,0,0,4.48,0,10s4.48,10,10,10,10-4.48,10-10S15.52,0,10,0ZM11.29,12.94c-.63,0-1.43-.32-1.74-.9-.57,2.26-.53,2.6-1.79,4.33-.13.05-.09.06-.17-.04-.05-.47-.11-.94-.11-1.41,0-1.53.71-3.75,1.05-5.24-.19-.38-.24-.85-.24-1.27,0-2,2.35-2.3,2.35-.65,0,.98-.66,1.89-.66,2.84,0,.65.53,1.1,1.16,1.1,1.73,0,2.26-2.49,2.26-3.82,0-1.78-1.26-2.75-2.97-2.75-1.98,0-3.52,1.43-3.52,3.44,0,.97.59,1.47.59,1.7,0,.2-.14.89-.39.89-.6,0-1.59-1-1.59-2.76,0-2.77,2.54-4.49,5.11-4.49,2.36,0,4.51,1.62,4.51,4.11,0,2.34-1.19,4.93-3.85,4.93Z"/>
</svg>