<?xml version="1.0" encoding="UTF-8"?>
<svg id="Layer_1" data-name="Layer 1" xmlns="http://www.w3.org/2000/svg" viewBox="0 0 20 20">
  <defs>
    <style>
      .cls-1 {
        fill: #ed1c24;
        stroke-width: 0px;
      }
    </style>
  </defs>
  <path class="cls-1" d="M10,0C4.48,0,0,4.48,0,10s4.48,10,10,10,10-4.48,10-10S15.52,0,10,0ZM15.42,8.88s-.75-.03-1.31-.18c-.78-.21-1.28-.53-1.28-.53,0,0-.35-.23-.37-.25v4.4c0,.24-.06.86-.26,1.37-.17.44-.41.84-.72,1.2,0,0-.48.59-1.32.99-.76.36-1.43.35-1.63.36,0,0-1.15.05-2.19-.66h0s0,0,0,0c-.35-.25-.66-.54-.93-.88-.33-.42-.53-.92-.58-1.06h0c-.08-.25-.26-.85-.23-1.43.04-1.02.38-1.65.47-1.8.24-.43.55-.81.92-1.13.42-.35.91-.62,1.44-.77.53-.15,1.08-.2,1.63-.13v2.19c-.18-.06-.37-.09-.56-.09-1,0-1.81.82-1.81,1.82s.81,1.82,1.81,1.82c.31,0,.62-.08.89-.23.26-.15.48-.36.64-.61.16-.25.26-.54.28-.84h0s0-.02,0-.02c0-.01,0-.03,0-.04,0-.11,0-.22,0-.33V3.75h2.15s-.03.21.03.52h0c.06.38.24.93.71,1.47.19.2.4.38.63.54.08.05.16.1.25.14.55.27,1.09.36,1.35.33v2.13Z"/>
</svg>