<svg data-icon="youtube" class="h-7 md:h-8 w-auto" viewBox="0 0 20 20" fill="currentColor" aria-hidden="true" xmlns="http://www.w3.org/2000/svg">
  <polygon points="8.72 11.87 11.99 10.01 8.72 8.15 8.72 11.87"/>
  <path d="M10,0C4.48,0,0,4.48,0,10s4.48,10,10,10,10-4.48,10-10S15.52,0,10,0ZM15.99,13.04c-.14.54-.57.95-1.11,1.09-.97.26-4.88.26-4.88.26,0,0-3.91,0-4.88-.26-.54-.14-.96-.55-1.11-1.09-.26-.98-.26-3.03-.26-3.03,0,0,0-2.05.26-3.03.14-.54.57-.97,1.11-1.11.97-.26,4.88-.26,4.88-.26,0,0,3.91,0,4.88.26.54.14.96.57,1.11,1.11.26.98.26,3.03.26,3.03,0,0,0,2.05-.26,3.03Z"/>
</svg>