<svg viewBox="0 0 18 18" class="w-4 h-4 shrink-0" fill="currentColor" aria-hidden="true">
              <path d="M10.22 7.09c-.42.38-.45 1.04-.07 1.47l.07.07c.78.76.78 2.02.01 2.8l-3.07 3.07c-.37.37-.87.58-1.39.59h-.01c-.52 0-1.02-.2-1.4-.59l-.86-.84c-.78-.78-.78-2.04 0-2.82.42-.42.42-1.11 0-1.53-.19-.2-.44-.32-.72-.33h-.04c-.26 0-.51.1-.7.27l-.06.06c-.79.78-1.22 1.82-1.23 2.93 0 1.11.42 2.15 1.2 2.93l.03.03.85.86c.81.81 1.87 1.21 2.94 1.21s2.13-.4 2.94-1.21l3.06-3.06c1.62-1.62 1.62-4.26 0-5.88-.43-.43-1.12-.43-1.54 0Z"/>
              <path d="M16.05 2.82l-.89-.86c-1.62-1.62-4.25-1.62-5.87 0L6.23 5.02c-1.62 1.62-1.62 4.26 0 5.88.21.21.48.32.78.32s.57-.12.78-.32c.21-.21.32-.48.32-.78s-.12-.57-.32-.78c-.78-.76-.79-2.02-.02-2.8l3.08-3.08c.78-.77 2.03-.77 2.81 0l.86.86c.77.78.77 2.04 0 2.82-.18.23-.26.51-.22.8.04.29.18.54.41.72.39.3.94.31 1.34 0 1.62-1.61 1.63-4.24.02-5.86Z"/>
</svg>